<?xml version="1.0" encoding="UTF-8"?>
<!DOCTYPE svg PUBLIC "-//W3C//DTD SVG 1.1//EN" "http://www.w3.org/Graphics/SVG/1.1/DTD/svg11.dtd">
<svg version="1.1" xmlns="http://www.w3.org/2000/svg" xmlns:xlink="http://www.w3.org/1999/xlink" x="0px" y="0px" width="360" height="360" viewBox="0, 0, 360, 360">
  <g id="Layer 2">
    <path d="M241.993,230.227 C241.993,236.596 236.82,241.758 230.439,241.758 L130.307,241.758 C123.925,241.758 118.753,236.596 118.753,230.227 L118.753,161.96 C118.753,155.59 128.42,221.512 138.415,175.094 C138.415,175.094 142.654,207.374 143.92,210.427 C146.633,216.975 158.42,221.423 162.42,151.76 C162.42,151.76 171.704,215.76 180.318,218.927 C194.167,218.927 202.42,137.094 202.42,137.094 C202.42,137.094 206.859,163.917 210.178,175.852 C213.575,188.07 218.486,200.829 224.96,202.76 C235.954,206.042 241.993,177.419 241.993,181.427 L241.993,230.227 z" fill="#000000"/>
    <path d="M117.993,116.939 L242.753,116.939 L242.753,241.698 L117.993,241.698 z" fill-opacity="0" stroke="#000000" stroke-width="11"/>
  </g>
  <defs/>
</svg>
